# xmcd CD database file
#
# Track frame offsets:
#	182
#	17390
#	38400
#	51050
#	66735
#	90830
#	109175
#	128972
#	143760
#	158790
#	179090
#	198175
#
# Disc length: 2892 seconds
#
# Revision: 4
# Processed by: cddbd v1.5.2PL0 Copyright (c) Steve Scherf et al.
# Submitted via: CDex 1.51
#
DISCID=9b0b4a0c
DTITLE=Milva - I Grandi Successi Originali  [CD 2-2]
DYEAR=2000
DGENRE=Chanson
TTITLE0=D'amore Si Muore
TTITLE1=Da Troppo Tempo
TTITLE2=Lungo La Strada  (Poljuska Polje)
TTITLE3=L' Uomo Questo Mascalzone
TTITLE4=Non Piangere Più Argentina
TTITLE5=Balocchi E Profumi
TTITLE6=Le Rose Rosse
TTITLE7=Canzone Appassiunata
TTITLE8=Mediterraneo
TTITLE9=Non Ce L' Ho Con Te
TTITLE10=Uomini Addosso
TTITLE11=Ci Vorrebbe Il Mare
EXTD=YEAR: 2000
EXTT0=
EXTT1=
EXTT2=
EXTT3=
EXTT4=
EXTT5=
EXTT6=
EXTT7=
EXTT8=
EXTT9=
EXTT10=
EXTT11=
PLAYORDER=
